<?xml version="1.0" encoding="UTF-8"?>
<svg id="Capa_2" data-name="Capa 2" xmlns="http://www.w3.org/2000/svg" viewBox="0 0 63.04 47.31">
  <defs>
    <style>
      .cls-1 {
        fill: #6246ea;
      }

      .cls-2 {
        fill: #ececec;
      }
    </style>
  </defs>
  <g id="Capa_1-2" data-name="Capa 1">
    <g>
      <path class="cls-1" d="M56.16,5.32c-.72,6.81-1.91,11.14.21,13.92s6.67,3.47,6.67,3.47c0,0-7.04,1.72-8.84,4.83-1.79,3.11-2.62,7.67-2.62,7.67l-.72,5.29s-.72,6.81-8.94,6.81H13.82s-7.91.24-6.71-6.68l.86-5.79s1.21-6.95-2.95-9.52c-4.16-2.57-5.02-2.42-5.02-2.42,0,0,6.65-.8,8.49-4.19s2.46-8.1,2.46-8.1l.7-4.57S11.98-.01,20.41,0h28.86s7.46-.08,6.89,5.32Z"/>
      <path class="cls-2" d="M36.64,18.15l-2.81,20.33h-8.5l2.81-20.33h8.5ZM35.22,8.84c.92,0,1.59.22,1.99.65.41.43.56,1.11.45,2.03l-.28,2.07c-.19,1.57-1.12,2.36-2.81,2.36h-3.33c-1.79,0-2.59-.89-2.4-2.68l.28-2.07c.16-1.57,1.1-2.36,2.8-2.36h3.29Z"/>
    </g>
  </g>
</svg>