<?xml version="1.0" encoding="UTF-8"?>
<svg id="Capa_2" data-name="Capa 2" xmlns="http://www.w3.org/2000/svg" viewBox="0 0 188.4 47.31">
  <defs>
    <style>
      .cls-1 {
        fill: #ececec;
      }
    </style>
  </defs>
  <g id="Capa_1-2" data-name="Capa 1">
    <g>
      <g>
        <path class="cls-1" d="M71.59,34.66c.31,0,.61.03.89.05l-.14.84h-2.4c-.19,0-.33.04-.42.13-.09.08-.15.22-.18.42l-.15,1.13h2.56l-.11.81h-2.57l-.2,1.44c-.02.18,0,.31.07.4.07.08.2.13.38.13h2.36l-.02.84c-.28.02-.57.04-.87.05-.3,0-.61.02-.91.02-.31,0-.61,0-.9,0-.48,0-.82-.13-1.04-.38-.21-.25-.29-.59-.24-1.01l.52-3.74c.05-.36.2-.65.43-.85s.56-.31.97-.31c.32,0,.64,0,.97,0s.65,0,.96.02ZM73.86,39.85c-.06-.09-.09-.22-.07-.39l.68-4.8h-1.14l-.68,4.92c-.04.28-.02.52.07.72.09.2.23.36.43.46.19.11.42.16.69.16.43,0,.87,0,1.32-.01.45,0,.87-.03,1.27-.06l.02-.87h-2.2c-.19,0-.32-.04-.38-.14ZM85.74,34.66h-1.13c-.13,0-.23.04-.31.09-.08.05-.14.14-.18.27l-1.43,3.47c-.05.14-.11.28-.16.42-.05.14-.1.29-.16.45h-.15c-.01-.14-.02-.29-.03-.44,0-.15-.03-.29-.05-.44l-.51-3.42c0-.12-.05-.22-.12-.29s-.17-.1-.29-.1h-1.11c-.14,0-.24.04-.31.1s-.12.17-.15.3l-1.05,5.84h1.07l.94-5.35h.17l.62,4.17c.01.12.06.22.13.29.08.07.18.1.3.1h.8c.13,0,.24-.03.31-.09.08-.06.13-.15.18-.27l1.76-4.21h.16l-.55,5.35h1.08l.57-5.79c.01-.15-.02-.26-.09-.34-.07-.08-.18-.12-.32-.12ZM92.08,35.87c.12.48.12,1.13,0,1.95-.08.62-.19,1.13-.34,1.54-.15.41-.34.74-.57.99s-.51.42-.85.52c-.34.1-.73.15-1.19.15-.62,0-1.1-.1-1.47-.3-.36-.2-.6-.54-.72-1.02-.12-.48-.13-1.13-.02-1.96.08-.6.2-1.11.34-1.52.14-.41.33-.74.57-.99.23-.25.52-.42.85-.53.33-.11.74-.16,1.21-.16.6,0,1.09.1,1.45.31s.61.55.73,1.02ZM90.99,36.35c-.03-.33-.14-.56-.33-.69-.18-.13-.46-.19-.81-.19s-.66.07-.88.21c-.22.14-.4.38-.53.72-.13.34-.24.82-.33,1.43-.08.59-.1,1.05-.07,1.38.03.33.14.56.32.7.18.14.45.2.8.2s.65-.07.87-.21c.22-.14.4-.38.53-.72.14-.34.25-.81.34-1.42.08-.6.11-1.07.08-1.4ZM97.92,34.66h-4.99l-.13.92h1.93l-.75,5.32h1.13l.75-5.32h1.93l.13-.92ZM103.09,35.87c.12.48.12,1.13,0,1.95-.08.62-.19,1.13-.34,1.54-.15.41-.34.74-.57.99s-.51.42-.85.52c-.34.1-.73.15-1.19.15-.62,0-1.1-.1-1.47-.3-.36-.2-.6-.54-.72-1.02-.12-.48-.13-1.13-.02-1.96.08-.6.2-1.11.34-1.52.14-.41.33-.74.57-.99.23-.25.52-.42.85-.53.33-.11.74-.16,1.21-.16.6,0,1.09.1,1.45.31s.61.55.73,1.02ZM102,36.35c-.03-.33-.14-.56-.33-.69-.18-.13-.46-.19-.81-.19s-.66.07-.88.21c-.22.14-.4.38-.53.72-.13.34-.24.82-.33,1.43-.08.59-.1,1.05-.07,1.38.03.33.14.56.32.7.18.14.45.2.8.2s.65-.07.87-.21c.22-.14.4-.38.53-.72.14-.34.25-.81.34-1.42.08-.6.11-1.07.08-1.4ZM108.7,35.32c.14.27.18.65.11,1.13-.04.29-.11.54-.21.76-.11.22-.25.39-.44.52-.19.13-.44.21-.74.25v.05c.1.03.2.08.3.15.1.07.18.17.25.3s.12.29.15.48l.35,1.94h-1.17l-.32-1.95c-.03-.22-.09-.37-.19-.45-.09-.08-.23-.12-.42-.12-.4,0-.74,0-1.02,0-.07,0-.12,0-.18,0l-.36,2.53h-1.11l.88-6.25c.24-.02.47-.04.69-.05.22-.01.45-.02.69-.02.24,0,.53,0,.86,0,.48,0,.87.06,1.19.17.32.11.55.3.69.58ZM107.67,35.84c-.04-.14-.13-.24-.27-.29-.14-.06-.34-.09-.6-.09-.47,0-.87,0-1.22,0l-.29,2.03h1.14c.27,0,.49-.04.65-.1s.29-.17.38-.32.16-.37.19-.66c.04-.25.04-.44,0-.58ZM116.32,35.88c.12.47.12,1.12,0,1.94-.1.66-.22,1.2-.37,1.62-.15.42-.34.74-.58.96-.24.22-.53.38-.87.46-.35.08-.76.13-1.25.13-.39,0-.78,0-1.17-.02-.39-.01-.77-.03-1.12-.06l.88-6.25c.22-.02.45-.03.71-.04.25-.01.51-.02.76-.03.26,0,.5,0,.72,0,.65,0,1.17.1,1.54.3.38.2.62.53.74,1ZM115.24,36.6c0-.3-.05-.53-.13-.69-.08-.16-.22-.28-.39-.34s-.41-.1-.7-.1c-.17,0-.36,0-.57,0-.19,0-.39,0-.58,0l-.64,4.58c.05,0,.1,0,.15,0,.32,0,.61.01.87.01.29,0,.55-.03.76-.09.21-.06.39-.17.53-.34.15-.17.27-.4.36-.71s.18-.71.24-1.2c.07-.47.1-.85.1-1.15ZM119.98,34.64c-.33,0-.65,0-.97,0-.41,0-.73.1-.97.31s-.38.49-.43.85l-.52,3.74c-.05.42.03.76.24,1.01.21.25.56.38,1.04.38.29,0,.59,0,.9,0,.31,0,.61,0,.91-.02.3,0,.59-.03.87-.05l.02-.84h-2.36c-.19,0-.32-.04-.38-.13-.07-.08-.09-.22-.07-.4l.2-1.44h2.57l.11-.81h-2.56l.15-1.13c.03-.19.09-.33.18-.42.09-.08.23-.13.42-.13h2.4l.14-.84c-.28-.02-.57-.04-.89-.05-.31,0-.63-.02-.96-.02ZM125.87,34.66h-1.93l-.13.92h1.93l-.75,5.32h1.13l.75-5.32h1.93l.13-.92h-3.06ZM132.77,38.43c-.07.41-.16.74-.27.98-.12.24-.27.42-.48.53-.21.11-.47.16-.8.16s-.56-.05-.73-.15-.27-.27-.31-.51c-.04-.24-.03-.56.03-.96l.53-3.82h-1.14l-.53,3.78c-.08.62-.06,1.12.07,1.5s.37.66.71.83c.35.17.8.26,1.36.26s1.03-.08,1.39-.25c.36-.16.64-.43.85-.81.21-.37.35-.87.43-1.49l.54-3.82h-1.14l-.53,3.78ZM136.4,40.9h1.14l.88-6.25h-1.14l-.88,6.25ZM143.11,38.68c-.02.16-.04.31-.05.47,0,.15-.02.32-.02.49h-.14c-.05-.17-.1-.34-.15-.51-.05-.16-.11-.31-.16-.45l-1.38-3.65c-.05-.11-.1-.21-.16-.27-.06-.07-.15-.1-.28-.1h-.69c-.13,0-.24.03-.31.09s-.12.17-.14.3l-.82,5.85h1.09l.57-4.08c.02-.16.04-.31.05-.47,0-.15.02-.31.02-.46h.13c.03.14.07.3.12.45.05.16.1.3.14.42l1.42,3.77c.05.11.1.21.16.27.06.07.15.1.28.1h.71c.13,0,.23-.03.3-.09.07-.06.11-.17.13-.3l.83-5.85h-1.09l-.55,4.02ZM147.83,34.54c-.35,0-.66.02-.93.06-.27.04-.5.12-.7.23-.2.11-.35.27-.48.49-.12.21-.21.5-.25.85-.03.28-.02.53.03.75.05.22.16.42.32.59s.4.32.71.45l1.21.49c.16.06.28.12.36.18.08.06.14.14.16.23.02.09.02.23,0,.39-.03.22-.09.39-.18.5-.09.11-.23.19-.4.22s-.42.05-.72.05h-.41c-.16,0-.37,0-.61-.01-.24,0-.54-.02-.9-.03l-.12.81c.43.09.83.15,1.2.18s.65.04.86.04c.53,0,.95-.05,1.29-.14.33-.09.59-.26.77-.5.18-.24.3-.59.36-1.05.04-.31.03-.58-.01-.8-.04-.23-.15-.42-.32-.58-.17-.16-.41-.3-.74-.43l-1.17-.47c-.17-.07-.3-.13-.38-.2-.09-.06-.14-.14-.17-.24-.02-.1-.03-.22,0-.38.02-.18.07-.32.13-.42s.14-.18.23-.22c.09-.05.21-.07.34-.08s.29-.01.47-.01c.22,0,.44,0,.66,0,.21,0,.43,0,.63.01.21,0,.41.01.61.02l.11-.77c-.31-.08-.64-.14-.98-.17s-.66-.05-.98-.05ZM155.33,35.58l.13-.92h-4.99l-.13.92h1.93l-.75,5.32h1.13l.75-5.32h1.93ZM155.28,40.9h1.14l.88-6.25h-1.14l-.88,6.25ZM159.93,34.66h-1.93l-.13.92h1.93l-.75,5.32h1.13l.75-5.32h1.93l.13-.92h-3.06ZM166.83,38.43c-.07.41-.16.74-.27.98-.12.24-.27.42-.48.53-.21.11-.47.16-.8.16s-.56-.05-.73-.15-.27-.27-.31-.51c-.04-.24-.03-.56.03-.96l.53-3.82h-1.14l-.53,3.78c-.08.62-.06,1.12.07,1.5s.37.66.71.83c.35.17.8.26,1.36.26s1.03-.08,1.39-.25c.36-.16.64-.43.85-.81.21-.37.35-.87.43-1.49l.54-3.82h-1.14l-.53,3.78ZM172.72,34.57c-.21-.01-.45-.02-.73-.02-.46,0-.86.05-1.2.16-.33.11-.62.29-.84.53s-.41.57-.56.98c-.15.41-.26.92-.34,1.52-.11.77-.11,1.4,0,1.88.11.48.34.83.69,1.05.35.22.84.33,1.47.33.42,0,.77-.02,1.06-.05.29-.03.58-.09.87-.18l-.05-.84c-.27.02-.54.05-.82.06-.27.02-.62.03-1.03.03-.34,0-.6-.07-.78-.2-.18-.13-.28-.35-.31-.67-.03-.32,0-.77.07-1.34.06-.46.14-.85.23-1.15.09-.3.2-.53.33-.7.13-.17.29-.28.48-.35.19-.07.41-.1.68-.1.25,0,.46,0,.64,0,.18,0,.35.01.52.02.16,0,.34.02.53.03l.16-.83c-.18-.05-.35-.09-.52-.12s-.36-.05-.56-.06ZM173.84,40.9h1.14l.88-6.25h-1.14l-.88,6.25ZM181.19,33.32l-.43-.81-1.88,1.35.29.48,2.03-1.02ZM181.62,35.87c.12.48.12,1.13,0,1.95-.08.62-.19,1.13-.34,1.54-.15.41-.34.74-.57.99s-.51.42-.85.52c-.34.1-.73.15-1.19.15-.62,0-1.1-.1-1.47-.3-.36-.2-.6-.54-.72-1.02-.12-.48-.13-1.13-.02-1.96.08-.6.2-1.11.34-1.52.14-.41.33-.74.57-.99.23-.25.52-.42.85-.53.33-.11.74-.16,1.21-.16.6,0,1.09.1,1.45.31s.61.55.73,1.02ZM180.53,36.35c-.03-.33-.14-.56-.33-.69-.18-.13-.46-.19-.81-.19s-.66.07-.88.21c-.22.14-.4.38-.53.72-.13.34-.24.82-.33,1.43-.08.59-.1,1.05-.07,1.38.03.33.14.56.32.7.18.14.45.2.8.2s.65-.07.87-.21c.22-.14.4-.38.53-.72.14-.34.25-.81.34-1.42.08-.6.11-1.07.08-1.4ZM187.08,34.66l-.55,4.02c-.02.16-.04.31-.05.47,0,.15-.02.32-.02.49h-.14c-.05-.17-.1-.34-.15-.51-.05-.16-.11-.31-.16-.45l-1.38-3.65c-.05-.11-.1-.21-.16-.27-.06-.07-.15-.1-.28-.1h-.69c-.13,0-.24.03-.31.09s-.12.17-.14.3l-.82,5.85h1.09l.57-4.08c.02-.16.04-.31.05-.47,0-.15.02-.31.02-.46h.13c.03.14.07.3.12.45.05.16.1.3.14.42l1.42,3.77c.05.11.1.21.16.27.06.07.15.1.28.1h.71c.13,0,.23-.03.3-.09.07-.06.11-.17.13-.3l.83-5.85h-1.09Z"/>
        <path class="cls-1" d="M71.58,10.34h4.9l-2.77,20.03h-4.94l2.81-20.03ZM90.31,9.95c-1.09-.07-2.12-.1-3.1-.1-1.88-.03-3.44.11-4.69.41-1.25.3-2.2.81-2.86,1.53-.65.72-1.06,1.72-1.22,3-.14,1.01-.08,1.89.16,2.65.24.76.69,1.41,1.35,1.96.65.54,1.48,1.03,2.49,1.47l5.18,2.08c.62.25,1.13.46,1.51.63.38.18.65.39.82.63.16.24.22.58.16,1.02-.08.49-.31.86-.69,1.12-.38.26-1,.44-1.86.53-.86.1-2.09.16-3.69.18-.71,0-1.46,0-2.27-.02-.8-.01-1.57-.03-2.3-.04-.73-.01-1.39-.03-1.96-.06l-.49,3.22c1.11.14,2.09.25,2.92.35.83.1,1.67.17,2.51.22.84.05,1.84.08,2.98.08,1.9,0,3.53-.12,4.88-.37,1.35-.25,2.43-.74,3.24-1.49s1.32-1.91,1.51-3.49c.14-1.06.07-1.95-.2-2.67-.27-.72-.73-1.33-1.39-1.84-.65-.5-1.51-.94-2.57-1.33l-5.22-2.12c-.84-.33-1.46-.64-1.86-.94-.39-.3-.54-.78-.43-1.43.05-.49.24-.84.55-1.06.31-.22.79-.35,1.43-.41.64-.05,1.5-.08,2.59-.08,1.39,0,2.72.01,4,.04,1.28.03,2.56.05,3.84.08l.53-3.18c-.79-.14-1.69-.25-2.69-.35-1.01-.1-2.05-.18-3.14-.24ZM96.14,30.37h4.94l2.77-20.03h-4.9l-2.81,20.03ZM123.25,10.46c-.79-.41-1.74-.61-2.86-.61-1.6,0-3.24.45-4.9,1.35-1.46.79-2.94,1.91-4.46,3.32l.1-4.18h-3.88l-2.81,20.03h4.94l1.75-12.69c1.46-1.15,2.74-2.05,3.82-2.67,1.16-.67,2.27-1,3.33-1,.84-.03,1.4.17,1.67.59.27.42.34,1.18.2,2.26l-1.96,13.51h4.98l2.12-14.93c.16-1.25.06-2.29-.31-3.12-.37-.83-.95-1.45-1.73-1.86ZM146.5,14.32c.5,1.56.56,3.65.18,6.26-.35,2.53-.95,4.55-1.8,6.06-.84,1.51-2.01,2.6-3.51,3.26s-3.43,1-5.79,1-4.26-.35-5.67-1.06c-1.41-.71-2.39-1.84-2.92-3.41-.53-1.56-.61-3.64-.22-6.22.35-2.53.94-4.56,1.77-6.08.83-1.52,2.01-2.62,3.53-3.28,1.52-.67,3.48-1,5.88-1s4.26.35,5.67,1.06c1.41.71,2.37,1.84,2.88,3.41ZM141.75,16.15c-.14-.94-.51-1.6-1.12-1.98-.61-.38-1.52-.57-2.71-.57-1.28,0-2.31.19-3.08.57-.78.38-1.39,1.08-1.84,2.08-.45,1.01-.81,2.45-1.08,4.33-.22,1.71-.26,3.05-.14,4,.12.95.5,1.61,1.12,1.98.62.37,1.55.55,2.77.55s2.26-.2,3.04-.59c.78-.39,1.39-1.1,1.84-2.12.45-1.02.8-2.41,1.04-4.18.24-1.77.3-3.12.16-4.06ZM163,10.34c-.27,1.63-.59,3.18-.96,4.65s-.88,3.03-1.53,4.69c-.49,1.33-.96,2.48-1.41,3.43-.45.95-.84,1.7-1.16,2.24-.38.65-.72,1.08-1.02,1.29s-.71.31-1.22.31h-.57l-2.12-16.61h-5.3l3.39,18.73c.05.38.22.69.51.94.29.25.62.37,1,.37h3.92c.87,0,1.6-.08,2.18-.25.58-.16,1.11-.44,1.57-.84s.91-.93,1.35-1.61c.41-.62.92-1.52,1.55-2.67s1.22-2.47,1.8-3.94c.41-.95.82-2.01,1.24-3.18.42-1.17.81-2.4,1.16-3.69.35-1.29.65-2.58.9-3.86h-5.26ZM188.4,10.87l-2.73,19.5h-3.83l.14-4.08c-.21.28-.44.55-.67.81-1.03,1.14-2.22,2.05-3.55,2.71-1.33.67-2.79,1.01-4.37,1.04-1.69.03-2.99-.32-3.9-1.04-.91-.72-1.48-1.89-1.71-3.51-.23-1.62-.17-3.71.18-6.26.35-2.28.83-4.11,1.43-5.49.6-1.37,1.35-2.39,2.24-3.06.9-.67,1.95-1.11,3.16-1.33,1.21-.22,2.58-.33,4.1-.33.71,0,1.49.03,2.35.08.86.05,1.72.13,2.59.22.87.1,1.71.2,2.51.33.8.12,1.49.25,2.06.39ZM181.81,22.59l1.28-8.99c-.38-.01-.76-.02-1.11-.03-1.02-.03-1.9-.04-2.63-.04-1.09,0-1.99.08-2.71.22s-1.31.45-1.77.9-.84,1.12-1.12,2-.54,2.06-.75,3.53c-.25,1.82-.37,3.21-.37,4.16s.19,1.6.57,1.96c.38.35.97.53,1.75.53.84-.03,1.7-.26,2.57-.69.87-.43,1.75-1.06,2.65-1.88.55-.5,1.1-1.06,1.65-1.66Z"/>
      </g>
      <path class="cls-1" d="M56.37,19.24c-2.12-2.78-.93-7.11-.21-13.92C56.73-.08,49.27,0,49.27,0h-28.86c-8.44-.01-8.76,6.05-8.76,6.05l-.7,4.57s-.61,4.71-2.46,8.1c-1.84,3.39-8.49,4.19-8.49,4.19,0,0,.85-.15,5.02,2.41,4.16,2.57,2.95,9.52,2.95,9.52l-.86,5.79c-1.19,6.91,6.71,6.68,6.71,6.68h28.09c8.23,0,8.94-6.81,8.94-6.81l.72-5.29s.83-4.57,2.62-7.67c1.79-3.11,8.84-4.83,8.84-4.83,0,0-4.56-.69-6.67-3.47ZM33.84,38.47h-8.5l2.81-20.33h8.5l-2.81,20.33ZM37.66,11.52l-.28,2.07c-.19,1.57-1.12,2.36-2.81,2.36h-3.33c-1.79,0-2.59-.89-2.4-2.68l.28-2.07c.16-1.57,1.1-2.36,2.8-2.36h3.29c.92,0,1.59.22,1.99.65.41.43.56,1.11.45,2.03Z"/>
    </g>
  </g>
</svg>