<?xml version="1.0" encoding="UTF-8"?>
<svg id="Capa_2" data-name="Capa 2" xmlns="http://www.w3.org/2000/svg" viewBox="0 0 63.04 47.31">
  <defs>
    <style>
      .cls-1 {
        fill: #2b2d42;
      }
    </style>
  </defs>
  <g id="Capa_1-2" data-name="Capa 1">
    <path class="cls-1" d="M56.37,19.24c-2.12-2.78-.93-7.11-.21-13.92C56.73-.08,49.27,0,49.27,0h-28.86c-8.44-.01-8.76,6.05-8.76,6.05l-.7,4.57s-.61,4.71-2.46,8.1c-1.84,3.39-8.49,4.19-8.49,4.19,0,0,.85-.15,5.02,2.41,4.16,2.57,2.95,9.52,2.95,9.52l-.86,5.79c-1.19,6.91,6.71,6.68,6.71,6.68h28.09c8.23,0,8.94-6.81,8.94-6.81l.72-5.29s.83-4.57,2.62-7.67c1.79-3.11,8.84-4.83,8.84-4.83,0,0-4.56-.69-6.67-3.47ZM33.84,38.47h-8.5l2.81-20.33h8.5l-2.81,20.33ZM37.66,11.52l-.28,2.07c-.19,1.57-1.12,2.36-2.81,2.36h-3.33c-1.79,0-2.59-.89-2.4-2.68l.28-2.07c.16-1.57,1.1-2.36,2.8-2.36h3.29c.92,0,1.59.22,1.99.65.41.43.56,1.11.45,2.03Z"/>
  </g>
</svg>