<?xml version="1.0" encoding="UTF-8"?>
<svg id="Capa_2" data-name="Capa 2" xmlns="http://www.w3.org/2000/svg" viewBox="0 0 188.4 47.31">
  <defs>
    <style>
      .cls-1 {
        fill: #2b2d42;
      }

      .cls-2 {
        fill: #00ff8c;
      }
    </style>
  </defs>
  <g id="Capa_1-2" data-name="Capa 1">
    <g>
      <g>
        <g>
          <path class="cls-1" d="M69.65,34.64c.32,0,.64,0,.97,0s.65,0,.96.02c.31,0,.61.03.89.05l-.14.84h-2.4c-.19,0-.33.04-.42.13-.09.08-.15.22-.18.42l-.46,3.39c-.02.18,0,.31.07.4.07.08.2.13.38.13h2.36l-.02.84c-.28.02-.57.04-.87.05-.3,0-.61.02-.91.02-.31,0-.61,0-.9,0-.48,0-.82-.13-1.04-.38-.21-.25-.29-.59-.24-1.01l.52-3.74c.05-.36.2-.65.43-.85s.56-.31.97-.31ZM68.22,37.23h3.53l-.11.81h-3.55l.13-.81Z"/>
          <path class="cls-1" d="M74.47,34.66l-.68,4.8c-.02.17,0,.3.07.39.06.09.19.14.38.14h2.2l-.02.87c-.4.03-.82.05-1.27.06-.45,0-.89.01-1.32.01-.27,0-.5-.05-.69-.16-.19-.11-.33-.26-.43-.46-.09-.2-.12-.44-.07-.72l.68-4.92h1.14Z"/>
          <path class="cls-1" d="M85.74,34.66c.14,0,.25.04.32.12.07.08.1.19.09.34l-.57,5.79h-1.08l.55-5.35h-.16l-1.76,4.21c-.04.12-.1.21-.18.27-.08.06-.18.09-.31.09h-.8c-.13,0-.23-.03-.3-.1-.08-.07-.12-.17-.13-.29l-.62-4.17h-.17l-.94,5.35h-1.07l1.05-5.84c.03-.13.08-.23.15-.3s.17-.1.31-.1h1.11c.12,0,.22.04.29.1s.11.16.12.29l.51,3.42c.02.14.04.29.05.44,0,.15.02.29.03.44h.15c.05-.16.11-.31.16-.45.05-.14.1-.28.16-.42l1.43-3.47c.04-.13.1-.22.18-.27.08-.05.18-.08.31-.08h1.13Z"/>
          <path class="cls-1" d="M89.9,34.54c.6,0,1.09.1,1.45.31s.61.55.73,1.02c.12.48.12,1.13,0,1.95-.08.62-.19,1.13-.34,1.54-.15.41-.34.74-.57.99s-.51.42-.85.52c-.34.1-.73.15-1.19.15-.62,0-1.1-.1-1.47-.3-.36-.2-.6-.54-.72-1.02-.12-.48-.13-1.13-.02-1.96.08-.6.2-1.11.34-1.52.14-.41.33-.74.57-.99.23-.25.52-.42.85-.53.33-.11.74-.16,1.21-.16ZM89.85,35.46c-.36,0-.66.07-.88.21-.22.14-.4.38-.53.72-.13.34-.24.82-.33,1.43-.08.59-.1,1.05-.07,1.38.03.33.14.56.32.7.18.14.45.2.8.2s.65-.07.87-.21c.22-.14.4-.38.53-.72.14-.34.25-.81.34-1.42.08-.6.11-1.07.08-1.4s-.14-.56-.33-.69c-.18-.13-.46-.19-.81-.19Z"/>
          <path class="cls-1" d="M97.92,34.66l-.13.92h-4.99l.13-.92h4.99ZM95.99,34.66l-.88,6.25h-1.13l.88-6.25h1.13Z"/>
          <path class="cls-1" d="M100.91,34.54c.6,0,1.09.1,1.45.31s.61.55.73,1.02c.12.48.12,1.13,0,1.95-.08.62-.19,1.13-.34,1.54-.15.41-.34.74-.57.99s-.51.42-.85.52c-.34.1-.73.15-1.19.15-.62,0-1.1-.1-1.47-.3-.36-.2-.6-.54-.72-1.02-.12-.48-.13-1.13-.02-1.96.08-.6.2-1.11.34-1.52.14-.41.33-.74.57-.99.23-.25.52-.42.85-.53.33-.11.74-.16,1.21-.16ZM100.87,35.46c-.36,0-.66.07-.88.21-.22.14-.4.38-.53.72-.13.34-.24.82-.33,1.43-.08.59-.1,1.05-.07,1.38.03.33.14.56.32.7.18.14.45.2.8.2s.65-.07.87-.21c.22-.14.4-.38.53-.72.14-.34.25-.81.34-1.42.08-.6.11-1.07.08-1.4s-.14-.56-.33-.69c-.18-.13-.46-.19-.81-.19Z"/>
          <path class="cls-1" d="M105.7,34.66l-.88,6.25h-1.11l.88-6.25h1.11ZM106.82,34.58c.48,0,.87.06,1.19.17.32.11.55.3.69.58.14.27.18.65.11,1.13-.04.29-.11.54-.21.76-.11.22-.25.39-.44.52-.19.13-.44.21-.74.25v.05c.1.03.2.08.3.15.1.07.18.17.25.3s.12.29.15.48l.35,1.94h-1.17l-.32-1.95c-.03-.22-.09-.37-.19-.45-.09-.08-.23-.12-.42-.12-.4,0-.74,0-1.02,0s-.5,0-.68,0c-.18,0-.34,0-.49,0l.12-.86h2.14c.27,0,.49-.04.65-.1s.29-.17.38-.32.16-.37.19-.66c.04-.25.04-.44,0-.58-.04-.14-.13-.24-.27-.29-.14-.06-.34-.09-.6-.09-.55,0-1.01,0-1.39,0-.38,0-.64.01-.77.02l-.05-.83c.24-.02.47-.04.69-.05.22-.01.45-.02.69-.02.24,0,.53,0,.86,0Z"/>
          <path class="cls-1" d="M114.04,34.58c.65,0,1.17.1,1.54.3.38.2.62.53.74,1,.12.47.12,1.12,0,1.94-.1.66-.22,1.2-.37,1.62-.15.42-.34.74-.58.96-.24.22-.53.38-.87.46-.35.08-.76.13-1.25.13-.39,0-.78,0-1.17-.02-.39-.01-.77-.03-1.12-.06l.57-.87c.24.01.51.02.83.03.32,0,.61.01.87.01.29,0,.55-.03.76-.09.21-.06.39-.17.53-.34.15-.17.27-.4.36-.71s.18-.71.24-1.2c.07-.47.1-.85.1-1.15s-.05-.53-.13-.69c-.08-.16-.22-.28-.39-.34s-.41-.1-.7-.1c-.17,0-.36,0-.57,0s-.42,0-.62,0-.39,0-.55,0l-.43-.83c.22-.02.45-.03.71-.04.25-.01.51-.02.76-.03.26,0,.5,0,.72,0ZM112.98,34.66l-.88,6.25h-1.13l.88-6.25h1.13Z"/>
          <path class="cls-1" d="M119,34.64c.32,0,.64,0,.97,0s.65,0,.96.02c.31,0,.61.03.89.05l-.14.84h-2.4c-.19,0-.33.04-.42.13-.09.08-.15.22-.18.42l-.46,3.39c-.02.18,0,.31.07.4.07.08.2.13.38.13h2.36l-.02.84c-.28.02-.57.04-.87.05-.3,0-.61.02-.91.02-.31,0-.61,0-.9,0-.48,0-.82-.13-1.04-.38-.21-.25-.29-.59-.24-1.01l.52-3.74c.05-.36.2-.65.43-.85s.56-.31.97-.31ZM117.57,37.23h3.53l-.11.81h-3.55l.13-.81Z"/>
          <path class="cls-1" d="M128.93,34.66l-.13.92h-4.99l.13-.92h4.99ZM127,34.66l-.88,6.25h-1.13l.88-6.25h1.13Z"/>
          <path class="cls-1" d="M134.43,34.66l-.54,3.82c-.08.62-.23,1.12-.43,1.49-.21.37-.49.64-.85.81-.36.16-.82.25-1.39.25s-1.02-.09-1.36-.26c-.35-.17-.58-.45-.71-.83s-.15-.88-.07-1.5l.53-3.78h1.14l-.53,3.82c-.06.41-.07.73-.03.96.04.24.15.41.31.51s.41.15.73.15.59-.05.8-.16c.21-.11.36-.28.48-.53.11-.24.21-.57.27-.98l.53-3.78h1.14Z"/>
          <path class="cls-1" d="M138.42,34.66l-.88,6.25h-1.14l.88-6.25h1.14Z"/>
          <path class="cls-1" d="M144.75,34.66l-.83,5.85c-.02.14-.06.24-.13.3-.07.06-.17.09-.3.09h-.71c-.13,0-.22-.03-.28-.1-.06-.07-.11-.16-.16-.27l-1.42-3.77c-.05-.12-.1-.26-.14-.42-.05-.16-.09-.31-.12-.45h-.13c0,.15-.01.3-.02.46,0,.15-.03.31-.05.47l-.57,4.08h-1.09l.82-5.85c.02-.14.06-.24.14-.3s.17-.09.31-.09h.69c.13,0,.22.03.28.1.06.07.11.16.16.27l1.38,3.65c.05.14.11.29.16.45.05.16.11.33.15.51h.14c0-.17.01-.34.02-.49,0-.15.03-.31.05-.47l.55-4.02h1.09Z"/>
          <path class="cls-1" d="M147.83,34.54c.31,0,.64.02.98.05s.66.09.98.17l-.11.77c-.2,0-.4-.01-.61-.02-.21,0-.42-.01-.63-.01-.21,0-.43,0-.66,0-.17,0-.33,0-.47.01s-.25.04-.34.08c-.09.04-.17.12-.23.22s-.1.24-.13.42c-.02.16-.01.28,0,.38.02.1.08.18.17.24.09.06.22.13.38.2l1.17.47c.33.13.57.27.74.43.17.16.27.35.32.58.04.23.05.49.01.8-.06.46-.18.81-.36,1.05-.18.24-.43.41-.77.5-.33.09-.76.14-1.29.14-.21,0-.5-.01-.86-.04s-.76-.09-1.2-.18l.12-.81c.36.01.65.02.9.03.24,0,.44.01.61.01h.41c.3,0,.54-.02.72-.05s.31-.11.4-.22c.09-.11.15-.28.18-.5.02-.17.02-.3,0-.39-.02-.09-.08-.17-.16-.23-.08-.06-.21-.12-.36-.18l-1.21-.49c-.31-.13-.54-.28-.71-.45s-.27-.37-.32-.59c-.05-.22-.06-.47-.03-.75.05-.35.13-.63.25-.85.12-.21.28-.38.48-.49.2-.11.43-.19.7-.23.27-.04.58-.06.93-.06Z"/>
          <path class="cls-1" d="M155.46,34.66l-.13.92h-4.99l.13-.92h4.99ZM153.53,34.66l-.88,6.25h-1.13l.88-6.25h1.13Z"/>
          <path class="cls-1" d="M157.3,34.66l-.88,6.25h-1.14l.88-6.25h1.14Z"/>
          <path class="cls-1" d="M162.99,34.66l-.13.92h-4.99l.13-.92h4.99ZM161.06,34.66l-.88,6.25h-1.13l.88-6.25h1.13Z"/>
          <path class="cls-1" d="M168.5,34.66l-.54,3.82c-.08.62-.23,1.12-.43,1.49-.21.37-.49.64-.85.81-.36.16-.82.25-1.39.25s-1.02-.09-1.36-.26c-.35-.17-.58-.45-.71-.83s-.15-.88-.07-1.5l.53-3.78h1.14l-.53,3.82c-.06.41-.07.73-.03.96.04.24.15.41.31.51s.41.15.73.15.59-.05.8-.16c.21-.11.36-.28.48-.53.11-.24.21-.57.27-.98l.53-3.78h1.14Z"/>
          <path class="cls-1" d="M171.98,34.55c.28,0,.53,0,.73.02s.39.04.56.06.34.07.52.12l-.16.83c-.19-.01-.36-.02-.53-.03-.16,0-.33-.02-.52-.02-.18,0-.39,0-.64,0-.27,0-.49.03-.68.1-.19.07-.35.18-.48.35-.13.17-.25.4-.33.7-.09.3-.17.68-.23,1.15-.08.57-.1,1.02-.07,1.34.03.32.13.54.31.67.17.13.43.2.78.2.41,0,.75,0,1.03-.03.28-.02.55-.04.82-.06l.05.84c-.28.08-.57.14-.87.18-.29.03-.65.05-1.06.05-.63,0-1.12-.11-1.47-.33-.35-.22-.58-.57-.69-1.05-.11-.48-.11-1.11,0-1.88.08-.6.2-1.11.34-1.52.14-.41.33-.74.56-.98s.51-.42.84-.53c.33-.11.73-.16,1.2-.16Z"/>
          <path class="cls-1" d="M175.86,34.66l-.88,6.25h-1.14l.88-6.25h1.14Z"/>
          <path class="cls-1" d="M179.43,34.54c.6,0,1.09.1,1.45.31s.61.55.73,1.02c.12.48.12,1.13,0,1.95-.08.62-.19,1.13-.34,1.54-.15.41-.34.74-.57.99s-.51.42-.85.52c-.34.1-.73.15-1.19.15-.62,0-1.1-.1-1.47-.3-.36-.2-.6-.54-.72-1.02-.12-.48-.13-1.13-.02-1.96.08-.6.2-1.11.34-1.52.14-.41.33-.74.57-.99.23-.25.52-.42.85-.53.33-.11.74-.16,1.21-.16ZM179.39,35.46c-.36,0-.66.07-.88.21-.22.14-.4.38-.53.72-.13.34-.24.82-.33,1.43-.08.59-.1,1.05-.07,1.38.03.33.14.56.32.7.18.14.45.2.8.2s.65-.07.87-.21c.22-.14.4-.38.53-.72.14-.34.25-.81.34-1.42.08-.6.11-1.07.08-1.4s-.14-.56-.33-.69c-.18-.13-.46-.19-.81-.19ZM180.76,32.51l.43.81-2.03,1.02-.29-.48,1.88-1.35Z"/>
          <path class="cls-1" d="M188.17,34.66l-.83,5.85c-.02.14-.06.24-.13.3-.07.06-.17.09-.3.09h-.71c-.13,0-.22-.03-.28-.1-.06-.07-.11-.16-.16-.27l-1.42-3.77c-.05-.12-.1-.26-.14-.42-.05-.16-.09-.31-.12-.45h-.13c0,.15-.01.3-.02.46,0,.15-.03.31-.05.47l-.57,4.08h-1.09l.82-5.85c.02-.14.06-.24.14-.3s.17-.09.31-.09h.69c.13,0,.22.03.28.1.06.07.11.16.16.27l1.38,3.65c.05.14.11.29.16.45.05.16.11.33.15.51h.14c0-.17.01-.34.02-.49,0-.15.03-.31.05-.47l.55-4.02h1.09Z"/>
        </g>
        <g>
          <polygon class="cls-1" points="68.77 30.37 73.7 30.37 76.48 10.34 71.58 10.34 68.77 30.37"/>
          <path class="cls-1" d="M90.31,9.95c-1.09-.07-2.12-.1-3.1-.1-1.88-.03-3.44.11-4.69.41-1.25.3-2.2.81-2.86,1.53-.65.72-1.06,1.72-1.22,3-.14,1.01-.08,1.89.16,2.65.24.76.69,1.41,1.35,1.96.65.54,1.48,1.03,2.49,1.47l5.18,2.08c.62.25,1.13.46,1.51.63.38.18.65.39.82.63.16.24.22.58.16,1.02-.08.49-.31.86-.69,1.12-.38.26-1,.44-1.86.53-.86.1-2.09.16-3.69.18-.71,0-1.46,0-2.27-.02-.8-.01-1.57-.03-2.3-.04-.73-.01-1.39-.03-1.96-.06l-.49,3.22c1.11.14,2.09.25,2.92.35.83.1,1.67.17,2.51.22.84.05,1.84.08,2.98.08,1.9,0,3.53-.12,4.88-.37,1.35-.25,2.43-.74,3.24-1.49s1.32-1.91,1.51-3.49c.14-1.06.07-1.95-.2-2.67-.27-.72-.73-1.33-1.39-1.84-.65-.5-1.51-.94-2.57-1.33l-5.22-2.12c-.84-.33-1.46-.64-1.86-.94-.39-.3-.54-.78-.43-1.43.05-.49.24-.84.55-1.06.31-.22.79-.35,1.43-.41.64-.05,1.5-.08,2.59-.08,1.39,0,2.72.01,4,.04,1.28.03,2.56.05,3.84.08l.53-3.18c-.79-.14-1.69-.25-2.69-.35-1.01-.1-2.05-.18-3.14-.24Z"/>
          <polygon class="cls-1" points="96.14 30.37 101.08 30.37 103.85 10.34 98.96 10.34 96.14 30.37"/>
          <path class="cls-1" d="M123.25,10.46c-.79-.41-1.74-.61-2.86-.61-1.6,0-3.24.45-4.9,1.35-1.46.79-2.94,1.91-4.46,3.32l.1-4.18h-3.88l-2.81,20.03h4.94l1.75-12.69c1.46-1.15,2.74-2.05,3.82-2.67,1.16-.67,2.27-1,3.33-1,.84-.03,1.4.17,1.67.59.27.42.34,1.18.2,2.26l-1.96,13.51h4.98l2.12-14.93c.16-1.25.06-2.29-.31-3.12-.37-.83-.95-1.45-1.73-1.86Z"/>
          <path class="cls-1" d="M143.62,10.91c-1.41-.71-3.3-1.06-5.67-1.06s-4.35.33-5.88,1c-1.52.67-2.7,1.76-3.53,3.28-.83,1.52-1.42,3.55-1.77,6.08-.38,2.58-.31,4.66.22,6.22.53,1.56,1.5,2.7,2.92,3.41,1.41.71,3.3,1.06,5.67,1.06s4.3-.33,5.79-1,2.67-1.75,3.51-3.26c.84-1.51,1.44-3.53,1.8-6.06.38-2.61.32-4.7-.18-6.26-.5-1.56-1.46-2.7-2.88-3.41ZM141.58,20.21c-.25,1.77-.59,3.16-1.04,4.18-.45,1.02-1.06,1.73-1.84,2.12-.78.39-1.79.59-3.04.59s-2.15-.18-2.77-.55c-.63-.37-1-1.03-1.12-1.98-.12-.95-.08-2.28.14-4,.27-1.88.63-3.32,1.08-4.33.45-1.01,1.06-1.7,1.84-2.08.78-.38,1.8-.57,3.08-.57,1.2,0,2.1.19,2.71.57.61.38.99,1.04,1.12,1.98.14.94.08,2.29-.16,4.06Z"/>
          <path class="cls-1" d="M163,10.34c-.27,1.63-.59,3.18-.96,4.65s-.88,3.03-1.53,4.69c-.49,1.33-.96,2.48-1.41,3.43-.45.95-.84,1.7-1.16,2.24-.38.65-.72,1.08-1.02,1.29s-.71.31-1.22.31h-.57l-2.12-16.61h-5.3l3.39,18.73c.05.38.22.69.51.94.29.25.62.37,1,.37h3.92c.87,0,1.6-.08,2.18-.25.58-.16,1.11-.44,1.57-.84s.91-.93,1.35-1.61c.41-.62.92-1.52,1.55-2.67s1.22-2.47,1.8-3.94c.41-.95.82-2.01,1.24-3.18.42-1.17.81-2.4,1.16-3.69.35-1.29.65-2.58.9-3.86h-5.26Z"/>
          <path class="cls-1" d="M186.34,10.48c-.8-.12-1.64-.23-2.51-.33-.87-.09-1.73-.17-2.59-.22-.86-.05-1.64-.08-2.35-.08-1.52,0-2.89.11-4.1.33-1.21.22-2.27.66-3.16,1.33-.9.67-1.65,1.69-2.24,3.06-.6,1.37-1.08,3.2-1.43,5.49-.35,2.56-.41,4.64-.18,6.26.23,1.62.8,2.79,1.71,3.51.91.72,2.21,1.07,3.9,1.04,1.58-.03,3.03-.37,4.37-1.04,1.33-.67,2.52-1.57,3.55-2.71.24-.26.46-.53.67-.81l-.14,4.08h3.83l2.73-19.5c-.57-.14-1.26-.26-2.06-.39ZM180.16,24.25c-.9.82-1.78,1.44-2.65,1.88-.87.44-1.73.67-2.57.69-.79,0-1.37-.18-1.75-.53-.38-.35-.57-1.01-.57-1.96s.12-2.34.37-4.16c.22-1.47.47-2.64.75-3.53s.66-1.55,1.12-2,1.05-.75,1.77-.9,1.63-.22,2.71-.22c.73,0,1.61.01,2.63.04.36,0,.73.02,1.11.03l-1.28,8.99c-.55.6-1.1,1.16-1.65,1.66Z"/>
        </g>
      </g>
      <g>
        <path class="cls-2" d="M56.16,5.32c-.72,6.81-1.91,11.14.21,13.92s6.67,3.47,6.67,3.47c0,0-7.04,1.72-8.84,4.83-1.79,3.11-2.62,7.67-2.62,7.67l-.72,5.29s-.72,6.81-8.94,6.81H13.82s-7.91.24-6.71-6.68l.86-5.79s1.21-6.95-2.95-9.52c-4.16-2.57-5.02-2.42-5.02-2.42,0,0,6.65-.8,8.49-4.19s2.46-8.1,2.46-8.1l.7-4.57S11.98-.01,20.41,0h28.86s7.46-.08,6.89,5.32Z"/>
        <path class="cls-1" d="M36.64,18.15l-2.81,20.33h-8.5l2.81-20.33h8.5ZM35.22,8.84c.92,0,1.59.22,1.99.65.41.43.56,1.11.45,2.03l-.28,2.07c-.19,1.57-1.12,2.36-2.81,2.36h-3.33c-1.79,0-2.59-.89-2.4-2.68l.28-2.07c.16-1.57,1.1-2.36,2.8-2.36h3.29Z"/>
      </g>
    </g>
  </g>
</svg>