<?xml version="1.0" encoding="UTF-8" standalone="no"?>
<!DOCTYPE svg PUBLIC "-//W3C//DTD SVG 1.1//EN" "http://www.w3.org/Graphics/SVG/1.1/DTD/svg11.dtd">
<svg width="100%" height="100%" viewBox="0 0 786 198" version="1.1" xmlns="http://www.w3.org/2000/svg" xmlns:xlink="http://www.w3.org/1999/xlink" xml:space="preserve" xmlns:serif="http://www.serif.com/" style="fill-rule:evenodd;clip-rule:evenodd;stroke-linejoin:round;stroke-miterlimit:2;">
    <g transform="matrix(1,0,0,1,-849.08625,-1655.36816)">
        <g transform="matrix(4.166667,0,0,4.166667,1628.598333,1817.353457)">
            <path d="M0,-4.219L-0.553,-0.199C-0.577,-0.042 -0.594,0.113 -0.603,0.267C-0.611,0.421 -0.619,0.586 -0.625,0.76L-0.761,0.76C-0.81,0.586 -0.86,0.417 -0.915,0.254C-0.969,0.091 -1.023,-0.06 -1.078,-0.199L-2.463,-3.848C-2.512,-3.962 -2.564,-4.053 -2.621,-4.119C-2.679,-4.186 -2.771,-4.219 -2.897,-4.219L-3.586,-4.219C-3.719,-4.219 -3.821,-4.188 -3.894,-4.124C-3.966,-4.061 -4.011,-3.959 -4.029,-3.821L-4.854,2.028L-3.767,2.028L-3.196,-2.055C-3.172,-2.212 -3.155,-2.367 -3.146,-2.522C-3.138,-2.675 -3.13,-2.827 -3.124,-2.979L-2.997,-2.979C-2.967,-2.834 -2.928,-2.683 -2.879,-2.526C-2.831,-2.369 -2.783,-2.23 -2.734,-2.11L-1.313,1.657C-1.265,1.771 -1.212,1.862 -1.154,1.928C-1.098,1.995 -1.005,2.028 -0.879,2.028L-0.172,2.028C-0.04,2.028 0.06,1.997 0.127,1.933C0.192,1.87 0.235,1.768 0.253,1.63L1.086,-4.219L0,-4.219ZM-6.558,-2.531C-6.591,-2.86 -6.699,-3.089 -6.883,-3.219C-7.067,-3.348 -7.338,-3.413 -7.693,-3.413C-8.056,-3.413 -8.349,-3.344 -8.571,-3.205C-8.795,-3.066 -8.972,-2.826 -9.102,-2.486C-9.231,-2.144 -9.342,-1.669 -9.432,-1.059C-9.511,-0.468 -9.533,-0.007 -9.5,0.321C-9.467,0.65 -9.359,0.883 -9.179,1.018C-8.997,1.154 -8.731,1.222 -8.382,1.222C-8.02,1.222 -7.729,1.151 -7.508,1.01C-7.288,0.868 -7.109,0.627 -6.974,0.285C-6.838,-0.056 -6.725,-0.528 -6.634,-1.132C-6.55,-1.736 -6.524,-2.201 -6.558,-2.531M-5.467,-3.006C-5.346,-2.529 -5.343,-1.88 -5.457,-1.059C-5.536,-0.444 -5.65,0.071 -5.802,0.484C-5.952,0.898 -6.143,1.227 -6.372,1.471C-6.602,1.716 -6.883,1.889 -7.218,1.992C-7.554,2.094 -7.95,2.146 -8.409,2.146C-9.024,2.146 -9.514,2.045 -9.876,1.843C-10.237,1.64 -10.479,1.301 -10.6,0.824C-10.721,0.347 -10.727,-0.305 -10.618,-1.132C-10.533,-1.736 -10.419,-2.242 -10.273,-2.653C-10.129,-3.063 -9.94,-3.392 -9.708,-3.64C-9.476,-3.887 -9.192,-4.065 -8.857,-4.174C-8.522,-4.282 -8.119,-4.337 -7.648,-4.337C-7.045,-4.337 -6.561,-4.234 -6.195,-4.029C-5.83,-3.823 -5.587,-3.483 -5.467,-3.006M-5.892,-5.559L-6.326,-6.365L-8.21,-5.016L-7.92,-4.535L-5.892,-5.559ZM-13.241,2.028L-12.1,2.028L-11.222,-4.219L-12.362,-4.219L-13.241,2.028ZM-14.367,-4.305C-14.572,-4.32 -14.816,-4.327 -15.101,-4.327C-15.565,-4.327 -15.965,-4.274 -16.3,-4.164C-16.635,-4.056 -16.915,-3.879 -17.142,-3.635C-17.368,-3.391 -17.554,-3.063 -17.698,-2.653C-17.844,-2.242 -17.958,-1.736 -18.043,-1.132C-18.151,-0.359 -18.151,0.268 -18.043,0.752C-17.934,1.234 -17.703,1.586 -17.351,1.806C-16.997,2.027 -16.507,2.136 -15.879,2.136C-15.463,2.136 -15.107,2.12 -14.815,2.087C-14.522,2.053 -14.234,1.995 -13.95,1.91L-13.996,1.068C-14.268,1.093 -14.54,1.114 -14.815,1.132C-15.09,1.15 -15.433,1.159 -15.843,1.159C-16.187,1.153 -16.446,1.085 -16.621,0.955C-16.797,0.826 -16.899,0.6 -16.929,0.281C-16.959,-0.039 -16.936,-0.486 -16.856,-1.059C-16.797,-1.524 -16.721,-1.906 -16.63,-2.204C-16.54,-2.503 -16.428,-2.736 -16.295,-2.902C-16.163,-3.068 -16.003,-3.184 -15.815,-3.25C-15.629,-3.317 -15.402,-3.35 -15.137,-3.35C-14.889,-3.35 -14.675,-3.347 -14.494,-3.341C-14.313,-3.334 -14.141,-3.327 -13.978,-3.319C-13.814,-3.309 -13.64,-3.298 -13.452,-3.286L-13.289,-4.119C-13.465,-4.174 -13.637,-4.214 -13.806,-4.241C-13.975,-4.269 -14.162,-4.29 -14.367,-4.305M-20.252,-0.444C-20.318,-0.033 -20.409,0.295 -20.523,0.539C-20.639,0.783 -20.798,0.959 -21.003,1.064C-21.209,1.17 -21.475,1.222 -21.8,1.222C-22.12,1.222 -22.363,1.173 -22.529,1.073C-22.695,0.973 -22.799,0.804 -22.842,0.566C-22.884,0.328 -22.875,0.007 -22.814,-0.399L-22.28,-4.219L-23.421,-4.219L-23.946,-0.444C-24.03,0.178 -24.008,0.679 -23.878,1.059C-23.748,1.439 -23.51,1.716 -23.163,1.887C-22.815,2.059 -22.361,2.146 -21.8,2.146C-21.232,2.146 -20.77,2.064 -20.41,1.901C-20.052,1.738 -19.77,1.469 -19.563,1.095C-19.358,0.721 -19.214,0.223 -19.129,-0.399L-18.586,-4.219L-19.727,-4.219L-20.252,-0.444ZM-24.091,-4.219L-29.079,-4.219L-29.206,-3.295L-27.28,-3.295L-28.029,2.028L-26.897,2.028L-26.149,-3.295L-24.218,-3.295L-24.091,-4.219ZM-31.801,2.028L-30.659,2.028L-29.781,-4.219L-30.922,-4.219L-31.801,2.028ZM-31.752,-3.295L-31.625,-4.219L-36.613,-4.219L-36.74,-3.295L-34.815,-3.295L-35.563,2.028L-34.432,2.028L-33.684,-3.295L-31.752,-3.295ZM-39.257,-4.337C-39.607,-4.337 -39.916,-4.316 -40.185,-4.274C-40.453,-4.231 -40.686,-4.155 -40.882,-4.042C-41.078,-3.931 -41.236,-3.768 -41.357,-3.554C-41.479,-3.339 -41.563,-3.057 -41.611,-2.707C-41.642,-2.429 -41.632,-2.179 -41.584,-1.955C-41.535,-1.733 -41.429,-1.536 -41.263,-1.367C-41.097,-1.198 -40.859,-1.047 -40.552,-0.914L-39.339,-0.425C-39.182,-0.365 -39.061,-0.305 -38.977,-0.244C-38.892,-0.184 -38.838,-0.107 -38.813,-0.014C-38.789,0.08 -38.789,0.212 -38.813,0.381C-38.844,0.603 -38.904,0.771 -38.994,0.883C-39.085,0.995 -39.22,1.068 -39.397,1.104C-39.575,1.14 -39.815,1.159 -40.117,1.159L-40.524,1.159C-40.688,1.159 -40.89,1.154 -41.131,1.145C-41.373,1.136 -41.671,1.126 -42.027,1.114L-42.146,1.928C-41.711,2.019 -41.313,2.078 -40.95,2.105C-40.588,2.133 -40.301,2.146 -40.09,2.146C-39.564,2.146 -39.137,2.1 -38.805,2.01C-38.473,1.92 -38.218,1.754 -38.039,1.512C-37.861,1.27 -37.742,0.921 -37.682,0.462C-37.646,0.154 -37.65,-0.114 -37.695,-0.339C-37.74,-0.566 -37.846,-0.759 -38.012,-0.919C-38.178,-1.078 -38.424,-1.222 -38.75,-1.349L-39.918,-1.82C-40.087,-1.886 -40.215,-1.951 -40.303,-2.015C-40.391,-2.077 -40.446,-2.157 -40.47,-2.254C-40.494,-2.351 -40.497,-2.478 -40.479,-2.635C-40.455,-2.816 -40.413,-2.957 -40.353,-3.06C-40.292,-3.162 -40.215,-3.237 -40.122,-3.282C-40.028,-3.327 -39.913,-3.355 -39.777,-3.364C-39.642,-3.372 -39.486,-3.377 -39.312,-3.377C-39.088,-3.377 -38.869,-3.375 -38.655,-3.372C-38.44,-3.369 -38.229,-3.365 -38.021,-3.359C-37.813,-3.353 -37.609,-3.347 -37.41,-3.341L-37.302,-4.111C-37.615,-4.195 -37.941,-4.252 -38.279,-4.282C-38.617,-4.313 -38.943,-4.33 -39.257,-4.337M-43.977,-0.199C-44.001,-0.042 -44.018,0.113 -44.026,0.267C-44.035,0.421 -44.043,0.586 -44.049,0.76L-44.185,0.76C-44.233,0.586 -44.284,0.417 -44.339,0.254C-44.393,0.091 -44.447,-0.06 -44.502,-0.199L-45.887,-3.848C-45.936,-3.962 -45.988,-4.053 -46.045,-4.119C-46.103,-4.186 -46.194,-4.219 -46.321,-4.219L-47.01,-4.219C-47.143,-4.219 -47.245,-4.188 -47.317,-4.124C-47.39,-4.061 -47.435,-3.959 -47.453,-3.821L-48.277,2.028L-47.19,2.028L-46.62,-2.055C-46.596,-2.212 -46.579,-2.367 -46.57,-2.522C-46.562,-2.675 -46.554,-2.827 -46.548,-2.979L-46.421,-2.979C-46.391,-2.834 -46.352,-2.683 -46.303,-2.526C-46.255,-2.369 -46.207,-2.23 -46.158,-2.11L-44.737,1.657C-44.688,1.771 -44.636,1.862 -44.578,1.928C-44.521,1.995 -44.429,2.028 -44.303,2.028L-43.596,2.028C-43.464,2.028 -43.364,1.997 -43.297,1.933C-43.231,1.87 -43.188,1.768 -43.171,1.63L-42.338,-4.219L-43.424,-4.219L-43.977,-0.199ZM-50.679,2.028L-49.537,2.028L-48.659,-4.219L-49.8,-4.219L-50.679,2.028ZM-54.317,-0.444C-54.384,-0.033 -54.475,0.295 -54.589,0.539C-54.704,0.783 -54.863,0.959 -55.068,1.064C-55.274,1.17 -55.54,1.222 -55.865,1.222C-56.186,1.222 -56.429,1.173 -56.595,1.073C-56.761,0.973 -56.864,0.804 -56.907,0.566C-56.949,0.328 -56.94,0.007 -56.88,-0.399L-56.346,-4.219L-57.486,-4.219L-58.012,-0.444C-58.096,0.178 -58.073,0.679 -57.943,1.059C-57.813,1.439 -57.575,1.716 -57.229,1.887C-56.881,2.059 -56.427,2.146 -55.865,2.146C-55.298,2.146 -54.835,2.064 -54.476,1.901C-54.117,1.738 -53.835,1.469 -53.629,1.095C-53.424,0.721 -53.279,0.223 -53.194,-0.399L-52.651,-4.219L-53.792,-4.219L-54.317,-0.444ZM-58.156,-4.219L-63.145,-4.219L-63.271,-3.295L-61.346,-3.295L-62.095,2.028L-60.963,2.028L-60.215,-3.295L-58.283,-3.295L-58.156,-4.219ZM-67.106,-4.233C-67.436,-4.236 -67.76,-4.238 -68.08,-4.238C-68.49,-4.238 -68.813,-4.134 -69.049,-3.929C-69.284,-3.724 -69.429,-3.441 -69.483,-3.078L-70.008,0.661C-70.063,1.084 -69.982,1.42 -69.769,1.671C-69.554,1.921 -69.209,2.047 -68.731,2.047C-68.442,2.047 -68.144,2.045 -67.835,2.042C-67.527,2.039 -67.223,2.033 -66.921,2.023C-66.619,2.014 -66.329,1.998 -66.052,1.973L-66.033,1.132L-68.396,1.132C-68.584,1.132 -68.712,1.09 -68.781,1.005C-68.851,0.921 -68.874,0.788 -68.85,0.606L-68.653,-0.833L-66.088,-0.833L-65.979,-1.648L-68.542,-1.648L-68.388,-2.78C-68.357,-2.973 -68.299,-3.112 -68.211,-3.196C-68.124,-3.281 -67.983,-3.323 -67.79,-3.323L-65.391,-3.323L-65.255,-4.164C-65.533,-4.189 -65.828,-4.205 -66.143,-4.214C-66.456,-4.224 -66.777,-4.23 -67.106,-4.233M-71.848,-2.282C-71.851,-2.577 -71.895,-2.807 -71.979,-2.97C-72.063,-3.132 -72.195,-3.245 -72.373,-3.309C-72.551,-3.372 -72.785,-3.405 -73.074,-3.405C-73.244,-3.405 -73.433,-3.403 -73.641,-3.4C-73.834,-3.397 -74.028,-3.395 -74.222,-3.395L-74.867,1.185C-74.815,1.187 -74.768,1.189 -74.714,1.19C-74.394,1.2 -74.104,1.204 -73.844,1.204C-73.549,1.204 -73.295,1.174 -73.084,1.114C-72.872,1.053 -72.694,0.94 -72.55,0.774C-72.404,0.608 -72.284,0.371 -72.188,0.063C-72.091,-0.244 -72.01,-0.643 -71.943,-1.132C-71.877,-1.603 -71.845,-1.986 -71.848,-2.282M-70.766,-2.996C-70.646,-2.526 -70.643,-1.88 -70.757,-1.059C-70.854,-0.395 -70.978,0.145 -71.128,0.561C-71.279,0.978 -71.472,1.298 -71.708,1.521C-71.943,1.745 -72.234,1.898 -72.581,1.983C-72.929,2.067 -73.344,2.109 -73.826,2.109C-74.213,2.109 -74.602,2.102 -74.994,2.087C-75.387,2.072 -75.761,2.052 -76.117,2.028L-75.238,-4.219C-75.021,-4.238 -74.786,-4.252 -74.532,-4.264C-74.278,-4.277 -74.023,-4.285 -73.768,-4.291C-73.511,-4.297 -73.271,-4.3 -73.048,-4.3C-72.396,-4.3 -71.883,-4.2 -71.509,-4.001C-71.134,-3.803 -70.887,-3.468 -70.766,-2.996M-79.412,-3.032C-79.454,-3.172 -79.545,-3.27 -79.684,-3.327C-79.822,-3.384 -80.021,-3.413 -80.281,-3.413C-80.754,-3.413 -81.152,-3.411 -81.5,-3.406L-81.785,-1.376L-80.644,-1.376C-80.372,-1.382 -80.154,-1.415 -79.991,-1.476C-79.828,-1.536 -79.7,-1.643 -79.606,-1.797C-79.513,-1.951 -79.448,-2.17 -79.412,-2.453C-79.37,-2.701 -79.37,-2.894 -79.412,-3.032M-78.385,-3.558C-78.242,-3.286 -78.205,-2.909 -78.271,-2.426C-78.308,-2.137 -78.378,-1.883 -78.484,-1.666C-78.59,-1.448 -78.737,-1.275 -78.928,-1.145C-79.118,-1.016 -79.363,-0.933 -79.665,-0.897L-79.675,-0.851C-79.565,-0.821 -79.463,-0.77 -79.366,-0.698C-79.271,-0.624 -79.188,-0.524 -79.118,-0.394C-79.049,-0.264 -78.999,-0.103 -78.969,0.091L-78.615,2.028L-79.783,2.028L-80.1,0.082C-80.13,-0.142 -80.192,-0.292 -80.285,-0.371C-80.379,-0.449 -80.52,-0.489 -80.707,-0.489C-81.111,-0.494 -81.45,-0.498 -81.726,-0.498C-81.792,-0.498 -81.847,-0.499 -81.909,-0.499L-82.264,2.028L-83.378,2.028L-82.499,-4.219C-82.258,-4.243 -82.028,-4.261 -81.812,-4.274C-81.594,-4.285 -81.363,-4.293 -81.118,-4.296C-80.874,-4.299 -80.589,-4.3 -80.263,-4.3C-79.786,-4.3 -79.39,-4.244 -79.072,-4.133C-78.756,-4.021 -78.526,-3.829 -78.385,-3.558M-85.081,-2.531C-85.114,-2.86 -85.223,-3.089 -85.406,-3.219C-85.591,-3.348 -85.861,-3.413 -86.217,-3.413C-86.579,-3.413 -86.872,-3.344 -87.095,-3.205C-87.318,-3.066 -87.495,-2.826 -87.625,-2.486C-87.755,-2.144 -87.865,-1.669 -87.955,-1.059C-88.034,-0.468 -88.057,-0.007 -88.023,0.321C-87.99,0.65 -87.883,0.883 -87.702,1.018C-87.521,1.154 -87.255,1.222 -86.905,1.222C-86.543,1.222 -86.252,1.151 -86.031,1.01C-85.812,0.868 -85.633,0.627 -85.497,0.285C-85.361,-0.056 -85.248,-0.528 -85.157,-1.132C-85.073,-1.736 -85.048,-2.201 -85.081,-2.531M-83.99,-3.006C-83.869,-2.529 -83.866,-1.88 -83.98,-1.059C-84.06,-0.444 -84.174,0.071 -84.325,0.484C-84.476,0.898 -84.666,1.227 -84.896,1.471C-85.125,1.716 -85.406,1.889 -85.741,1.992C-86.077,2.094 -86.474,2.146 -86.933,2.146C-87.548,2.146 -88.037,2.045 -88.399,1.843C-88.761,1.64 -89.003,1.301 -89.123,0.824C-89.244,0.347 -89.25,-0.305 -89.142,-1.132C-89.057,-1.736 -88.942,-2.242 -88.797,-2.653C-88.652,-3.063 -88.464,-3.392 -88.231,-3.64C-87.999,-3.887 -87.716,-4.065 -87.381,-4.174C-87.046,-4.282 -86.643,-4.337 -86.172,-4.337C-85.568,-4.337 -85.084,-4.234 -84.719,-4.029C-84.354,-3.823 -84.11,-3.483 -83.99,-3.006M-89.162,-4.219L-94.15,-4.219L-94.277,-3.295L-92.352,-3.295L-93.101,2.028L-91.969,2.028L-91.221,-3.295L-89.289,-3.295L-89.162,-4.219ZM-96.095,-2.531C-96.128,-2.86 -96.236,-3.089 -96.42,-3.219C-96.604,-3.348 -96.875,-3.413 -97.23,-3.413C-97.593,-3.413 -97.886,-3.344 -98.108,-3.205C-98.332,-3.066 -98.509,-2.826 -98.639,-2.486C-98.769,-2.144 -98.879,-1.669 -98.969,-1.059C-99.048,-0.468 -99.07,-0.007 -99.037,0.321C-99.004,0.65 -98.896,0.883 -98.716,1.018C-98.534,1.154 -98.269,1.222 -97.919,1.222C-97.557,1.222 -97.266,1.151 -97.045,1.01C-96.825,0.868 -96.646,0.627 -96.511,0.285C-96.375,-0.056 -96.262,-0.528 -96.171,-1.132C-96.087,-1.736 -96.062,-2.201 -96.095,-2.531M-95.004,-3.006C-94.883,-2.529 -94.88,-1.88 -94.994,-1.059C-95.073,-0.444 -95.188,0.071 -95.339,0.484C-95.489,0.898 -95.68,1.227 -95.909,1.471C-96.139,1.716 -96.42,1.889 -96.755,1.992C-97.091,2.094 -97.487,2.146 -97.946,2.146C-98.562,2.146 -99.051,2.045 -99.413,1.843C-99.774,1.64 -100.017,1.301 -100.137,0.824C-100.258,0.347 -100.264,-0.305 -100.155,-1.132C-100.07,-1.736 -99.956,-2.242 -99.811,-2.653C-99.666,-3.063 -99.478,-3.392 -99.245,-3.64C-99.013,-3.887 -98.729,-4.065 -98.395,-4.174C-98.06,-4.282 -97.656,-4.337 -97.186,-4.337C-96.582,-4.337 -96.098,-4.234 -95.732,-4.029C-95.367,-3.823 -95.124,-3.483 -95.004,-3.006M-101.341,-4.219L-102.473,-4.21C-102.6,-4.21 -102.702,-4.184 -102.781,-4.133C-102.859,-4.081 -102.92,-3.992 -102.962,-3.865L-104.393,-0.399C-104.446,-0.259 -104.5,-0.119 -104.551,0.022C-104.603,0.165 -104.655,0.314 -104.709,0.47L-104.854,0.47C-104.866,0.326 -104.877,0.179 -104.886,0.032C-104.895,-0.116 -104.911,-0.263 -104.936,-0.407L-105.442,-3.829C-105.448,-3.95 -105.488,-4.045 -105.561,-4.115C-105.633,-4.184 -105.729,-4.219 -105.85,-4.219L-106.955,-4.219C-107.094,-4.219 -107.197,-4.184 -107.267,-4.115C-107.336,-4.045 -107.386,-3.945 -107.416,-3.812L-108.467,2.028L-107.398,2.028L-106.457,-3.323L-106.284,-3.323L-105.669,0.851C-105.657,0.971 -105.613,1.067 -105.538,1.136C-105.462,1.206 -105.361,1.24 -105.234,1.24L-104.438,1.24C-104.305,1.24 -104.201,1.212 -104.125,1.154C-104.05,1.097 -103.991,1.009 -103.949,0.887L-102.192,-3.323L-102.029,-3.323L-102.582,2.028L-101.504,2.028L-100.934,-3.757C-100.922,-3.903 -100.95,-4.015 -101.02,-4.097C-101.089,-4.178 -101.196,-4.219 -101.341,-4.219M-113.225,0.968C-113.288,0.879 -113.311,0.749 -113.292,0.58L-112.613,-4.219L-113.754,-4.219L-114.433,0.706C-114.476,0.984 -114.451,1.223 -114.36,1.426C-114.27,1.629 -114.128,1.782 -113.935,1.887C-113.742,1.994 -113.513,2.047 -113.247,2.047C-112.818,2.047 -112.379,2.042 -111.93,2.033C-111.48,2.023 -111.056,2.004 -110.657,1.973L-110.64,1.104L-112.84,1.104C-113.033,1.104 -113.161,1.059 -113.225,0.968M-115.496,-4.214C-115.182,-4.205 -114.887,-4.189 -114.608,-4.164L-114.744,-3.323L-117.144,-3.323C-117.337,-3.323 -117.478,-3.281 -117.564,-3.196C-117.652,-3.112 -117.711,-2.973 -117.741,-2.78L-117.896,-1.648L-115.333,-1.648L-115.441,-0.833L-118.007,-0.833L-118.203,0.606C-118.228,0.788 -118.204,0.921 -118.135,1.005C-118.065,1.09 -117.938,1.132 -117.75,1.132L-115.387,1.132L-115.405,1.973C-115.683,1.998 -115.973,2.014 -116.274,2.023C-116.576,2.033 -116.881,2.039 -117.188,2.042C-117.497,2.045 -117.796,2.047 -118.085,2.047C-118.563,2.047 -118.907,1.921 -119.122,1.671C-119.336,1.42 -119.416,1.084 -119.361,0.661L-118.837,-3.078C-118.782,-3.441 -118.638,-3.724 -118.402,-3.929C-118.167,-4.134 -117.844,-4.238 -117.434,-4.238C-117.113,-4.238 -116.789,-4.236 -116.46,-4.233C-116.131,-4.23 -115.81,-4.224 -115.496,-4.214" style="fill:rgb(236,236,236);fill-rule:nonzero;"/>
        </g>
        <g transform="matrix(4.166667,0,0,4.166667,1606.630833,1730.93054)">
            <path d="M0,4.456L1.278,-4.538C0.894,-4.551 0.52,-4.563 0.164,-4.572C-0.856,-4.599 -1.733,-4.613 -2.467,-4.613C-3.555,-4.613 -4.46,-4.538 -5.181,-4.389C-5.902,-4.239 -6.493,-3.94 -6.956,-3.491C-7.418,-3.043 -7.792,-2.376 -8.077,-1.492C-8.363,-0.608 -8.615,0.568 -8.832,2.037C-9.077,3.86 -9.199,5.247 -9.199,6.199C-9.199,7.151 -9.01,7.804 -8.628,8.157C-8.248,8.511 -7.663,8.688 -6.874,8.688C-6.031,8.661 -5.174,8.429 -4.303,7.994C-3.433,7.559 -2.549,6.933 -1.651,6.117C-1.101,5.616 -0.55,5.059 0,4.456M6.59,-7.266L3.857,12.237L0.022,12.237L0.166,8.16C-0.048,8.438 -0.271,8.711 -0.509,8.973C-1.543,10.115 -2.726,11.02 -4.059,11.686C-5.392,12.353 -6.847,12.699 -8.424,12.727C-10.111,12.754 -11.409,12.407 -12.321,11.686C-13.232,10.966 -13.803,9.796 -14.035,8.178C-14.266,6.559 -14.204,4.472 -13.851,1.915C-13.497,-0.37 -13.021,-2.199 -12.422,-3.573C-11.824,-4.946 -11.076,-5.967 -10.178,-6.633C-9.281,-7.299 -8.227,-7.741 -7.016,-7.959C-5.807,-8.177 -4.44,-8.286 -2.916,-8.286C-2.209,-8.286 -1.427,-8.258 -0.57,-8.204C0.287,-8.149 1.149,-8.074 2.02,-7.98C2.89,-7.884 3.727,-7.776 4.53,-7.653C5.332,-7.53 6.019,-7.401 6.59,-7.266M-18.81,-7.796C-19.082,-6.164 -19.401,-4.613 -19.769,-3.145C-20.136,-1.676 -20.645,-0.111 -21.298,1.547C-21.788,2.881 -22.258,4.023 -22.706,4.974C-23.155,5.927 -23.543,6.675 -23.869,7.219C-24.25,7.872 -24.59,8.3 -24.889,8.504C-25.189,8.708 -25.596,8.81 -26.113,8.81L-26.685,8.81L-28.806,-7.796L-34.11,-7.796L-30.723,10.931C-30.669,11.313 -30.499,11.625 -30.213,11.87C-29.928,12.115 -29.595,12.237 -29.214,12.237L-25.297,12.237C-24.427,12.237 -23.699,12.155 -23.114,11.992C-22.53,11.829 -22.006,11.551 -21.543,11.156C-21.081,10.762 -20.632,10.224 -20.197,9.544C-19.789,8.919 -19.273,8.028 -18.647,6.872C-18.021,5.716 -17.423,4.403 -16.852,2.935C-16.443,1.983 -16.029,0.922 -15.607,-0.248C-15.185,-1.417 -14.798,-2.648 -14.444,-3.94C-14.091,-5.232 -13.791,-6.517 -13.547,-7.796L-18.81,-7.796ZM-40.064,-1.982C-40.201,-2.92 -40.574,-3.579 -41.186,-3.961C-41.798,-4.341 -42.703,-4.532 -43.899,-4.532C-45.178,-4.532 -46.204,-4.341 -46.979,-3.961C-47.754,-3.579 -48.366,-2.886 -48.816,-1.88C-49.264,-0.873 -49.625,0.568 -49.897,2.445C-50.115,4.158 -50.161,5.492 -50.039,6.443C-49.917,7.396 -49.544,8.055 -48.917,8.422C-48.292,8.789 -47.367,8.973 -46.143,8.973C-44.892,8.973 -43.879,8.776 -43.104,8.382C-42.328,7.987 -41.716,7.28 -41.268,6.26C-40.819,5.24 -40.472,3.846 -40.227,2.078C-39.982,0.31 -39.928,-1.044 -40.064,-1.982M-35.31,-3.818C-34.808,-2.253 -34.746,-0.166 -35.127,2.445C-35.481,4.974 -36.08,6.994 -36.922,8.504C-37.766,10.014 -38.935,11.102 -40.431,11.768C-41.927,12.434 -43.858,12.768 -46.225,12.768C-48.591,12.768 -50.482,12.413 -51.896,11.706C-53.311,10.999 -54.282,9.864 -54.813,8.3C-55.344,6.736 -55.419,4.663 -55.038,2.078C-54.684,-0.452 -54.093,-2.478 -53.263,-4.002C-52.433,-5.524 -51.257,-6.619 -49.733,-7.286C-48.21,-7.952 -46.252,-8.286 -43.858,-8.286C-41.491,-8.286 -39.602,-7.931 -38.187,-7.225C-36.773,-6.517 -35.814,-5.382 -35.31,-3.818M-58.562,-7.673C-59.352,-8.081 -60.303,-8.286 -61.419,-8.286C-63.024,-8.286 -64.656,-7.836 -66.315,-6.939C-67.77,-6.151 -69.26,-5.031 -70.778,-3.616L-70.68,-7.796L-74.556,-7.796L-77.371,12.237L-72.435,12.237L-70.684,-0.457C-69.22,-1.607 -67.942,-2.504 -66.866,-3.124C-65.709,-3.79 -64.601,-4.124 -63.54,-4.124C-62.697,-4.151 -62.14,-3.953 -61.867,-3.532C-61.596,-3.11 -61.528,-2.356 -61.663,-1.268L-63.622,12.237L-58.644,12.237L-56.523,-2.696C-56.36,-3.947 -56.461,-4.987 -56.829,-5.817C-57.196,-6.646 -57.774,-7.266 -58.562,-7.673M-85.67,12.237L-80.733,12.237L-77.959,-7.796L-82.855,-7.796L-85.67,12.237ZM-91.504,-8.183C-92.593,-8.251 -93.626,-8.286 -94.605,-8.286C-96.482,-8.312 -98.046,-8.177 -99.297,-7.877C-100.548,-7.578 -101.5,-7.068 -102.153,-6.348C-102.806,-5.626 -103.214,-4.627 -103.377,-3.349C-103.514,-2.342 -103.459,-1.458 -103.214,-0.697C-102.969,0.065 -102.52,0.718 -101.867,1.262C-101.214,1.806 -100.385,2.296 -99.379,2.731L-94.197,4.811C-93.572,5.056 -93.068,5.267 -92.687,5.443C-92.306,5.621 -92.034,5.831 -91.871,6.076C-91.708,6.321 -91.654,6.661 -91.708,7.096C-91.79,7.585 -92.021,7.96 -92.402,8.219C-92.783,8.477 -93.401,8.654 -94.258,8.748C-95.115,8.844 -96.346,8.906 -97.95,8.932C-98.658,8.932 -99.413,8.925 -100.215,8.912C-101.017,8.898 -101.786,8.885 -102.52,8.871C-103.255,8.857 -103.907,8.837 -104.478,8.81L-104.968,12.033C-103.853,12.17 -102.881,12.284 -102.051,12.38C-101.222,12.475 -100.385,12.549 -99.542,12.604C-98.699,12.658 -97.706,12.686 -96.564,12.686C-94.66,12.686 -93.034,12.563 -91.688,12.319C-90.341,12.074 -89.26,11.578 -88.444,10.83C-87.628,10.082 -87.125,8.919 -86.935,7.341C-86.799,6.28 -86.867,5.389 -87.138,4.668C-87.411,3.948 -87.873,3.336 -88.526,2.832C-89.179,2.329 -90.036,1.887 -91.096,1.507L-96.318,-0.615C-97.162,-0.942 -97.781,-1.254 -98.175,-1.554C-98.569,-1.852 -98.712,-2.329 -98.603,-2.981C-98.549,-3.471 -98.365,-3.824 -98.053,-4.043C-97.74,-4.26 -97.264,-4.395 -96.624,-4.45C-95.986,-4.504 -95.122,-4.532 -94.034,-4.532C-92.647,-4.532 -91.314,-4.517 -90.036,-4.491C-88.757,-4.463 -87.479,-4.436 -86.2,-4.409L-85.67,-7.592C-86.459,-7.727 -87.356,-7.843 -88.363,-7.939C-89.369,-8.034 -90.417,-8.115 -91.504,-8.183M-110.231,-7.796L-105.335,-7.796L-108.11,12.237L-113.046,12.237L-110.231,-7.796Z" style="fill:rgb(236,236,236);fill-rule:nonzero;"/>
        </g>
        <g transform="matrix(4.166667,0,0,4.166667,1006.007083,1805.143457)">
            <path d="M0,-24.425L-0.285,-22.352C-0.475,-20.779 -1.409,-19.994 -3.09,-19.994L-6.423,-19.994C-8.212,-19.994 -9.012,-20.888 -8.822,-22.677L-8.537,-24.75C-8.375,-26.322 -7.44,-27.108 -5.732,-27.108L-2.439,-27.108C-1.518,-27.108 -0.854,-26.891 -0.448,-26.457C-0.041,-26.023 0.108,-25.346 0,-24.425M-3.822,2.528L-12.318,2.528L-9.513,-17.798L-1.016,-17.798L-3.822,2.528ZM18.706,-16.707C16.59,-19.49 17.773,-23.813 18.498,-30.626C19.073,-36.028 11.611,-35.946 11.611,-35.946L-17.249,-35.946C-25.686,-35.96 -26.013,-29.9 -26.013,-29.9L-26.717,-25.331C-26.717,-25.331 -27.331,-20.618 -29.172,-17.229C-31.013,-13.841 -37.661,-13.042 -37.661,-13.042C-37.661,-13.042 -36.808,-13.196 -32.644,-10.627C-28.481,-8.059 -29.696,-1.104 -29.696,-1.104L-30.551,4.69C-31.745,11.603 -23.837,11.366 -23.837,11.366L4.256,11.366C12.483,11.367 13.2,4.556 13.2,4.556L13.919,-0.737C13.919,-0.737 14.745,-5.304 16.538,-8.409C18.332,-11.515 25.377,-13.235 25.377,-13.235C25.377,-13.235 20.822,-13.925 18.706,-16.707" style="fill:rgb(236,236,236);fill-rule:nonzero;"/>
        </g>
    </g>
</svg>
